HIERARCHY
ROOT Spine
{
    OFFSET 0.0 0.0 -0.0
    CHANNELS 6 Xposition Yposition Zposition Zrotation Xrotation Yrotation
    JOINT ShoulderCenter
    {
        OFFSET 0.0 32.914581298828125 0.0
        CHANNELS 3 Zrotation Xrotation Yrotation
        JOINT LeftShoulder
        {
            OFFSET 18.777008056640625 0.0 0.0
            CHANNELS 3 Zrotation Xrotation Yrotation
            JOINT LeftElbow
            {
                OFFSET 28.852981567382812 0.0 0.0
                CHANNELS 3 Zrotation Xrotation Yrotation
                JOINT LeftHand
                {
                    OFFSET 32.80236053466797 0.0 0.0
                    CHANNELS 3 Zrotation Xrotation Yrotation
                    End Site
                    {
                        OFFSET 13.12094497680664 0.0 0.0
                    }
                }
            }
        }
        JOINT RightShoulder
        {
            OFFSET -18.777008056640625 0.0 0.0
            CHANNELS 3 Zrotation Xrotation Yrotation
            JOINT RightElbow
            {
                OFFSET -28.852981567382812 0.0 0.0
                CHANNELS 3 Zrotation Xrotation Yrotation
                JOINT RightHand
                {
                    OFFSET -32.80236053466797 0.0 0.0
                    CHANNELS 3 Zrotation Xrotation Yrotation
                    End Site
                    {
                        OFFSET -13.12094497680664 0.0 0.0
                    }
                }
            }
        }
        End Site
        {
            OFFSET 0.0 13.16583251953125 0.0
        }
    }
    JOINT LeftHip
    {
        OFFSET 16.243934895759498 -16.243934895759498 0.0
        CHANNELS 3 Zrotation Xrotation Yrotation
        JOINT LeftKnee
        {
            OFFSET 0.0 -41.178192138671875 0.0
            CHANNELS 3 Zrotation Xrotation Yrotation
            JOINT LeftFoot
            {
                OFFSET 0.0 -44.44248962402344 0.0
                CHANNELS 3 Zrotation Xrotation Yrotation
                End Site
                {
                    OFFSET 0.0 0.0 17.776996612548828
                }
            }
        }
    }
    JOINT RightHip
    {
        OFFSET -16.243934895759498 -16.243934895759498 0.0
        CHANNELS 3 Zrotation Xrotation Yrotation
        JOINT RightKnee
        {
            OFFSET 0.0 -41.178192138671875 0.0
            CHANNELS 3 Zrotation Xrotation Yrotation
            JOINT RightFoot
            {
                OFFSET 0.0 -44.44248962402344 0.0
                CHANNELS 3 Zrotation Xrotation Yrotation
                End Site
                {
                    OFFSET 0.0 0.0 17.776996612548828
                }
            }
        }
    }
}
MOTION
Frames: 4
Frame Time: 0.03333333333333333
-43.599998474121094 7.299999713897705 58.499996185302734 13.441208777771033 -4.8947825670040865 91.06216025383343 6.786630415288444e-07 5.3110898638892645e-08 -6.021987168275732 110.94545493517946 24.33491355128672 -81.78196507564579 -8.743374720173815e-07 3.924378715168863e-06 91.77799061319166 7.951386703658792e-15 -6.3611093629270335e-15 4.413906298050159e-31 -95.8585980003191 16.766545506116294 79.27082448703217 -2.2656568623711344e-06 1.698619113230184e-07 -91.92670510155848 0.0 -1.5902773407317584e-15 0.0 13.025632685881432 -15.515993835796744 -43.18794301436842 -33.51870648309152 22.42777856265558 -21.84889430745443 -6.896728590703373e-34 -1.9878466759146977e-16 -3.9756933518293955e-16 4.809149301619925 -19.58330908667676 10.68614393031273 6.206136747900134 38.172408839197566 46.80919358109111 -7.951386703658792e-16 -3.975693351829396e-16 1.4163407565892223e-15
-46.20000076293945 7.500000476837158 58.70000076293945 11.861495602927278 -5.432703667971424 90.86159057427804 9.687499241484068e-08 8.877783297367146e-07 -5.22888467750802 111.53177849582971 24.33310488072845 -82.05552045729742 -2.4095393236492867e-06 1.7068381476325526e-07 92.05078261604746 0.0 6.3611093629270335e-15 0.0 -95.5519777201126 16.695225108704754 79.76046954452795 6.293652861606575e-07 7.939970428060214e-07 -92.62780679698074 0.0 0.0 -6.3611093629270335e-15 13.435933812841787 -13.553329489616964 -48.410568380959 -35.9297188787109 19.257232069124985 -16.935393498319947 1.590277340731758e-15 -3.310429723537619e-32 -2.3854160110976368e-15 5.433659707704518 -18.507892836287617 12.085028075357323 7.5190406326735975 39.68013826695174 46.165372693460746 5.963540027744094e-16 -1.2672738785417446e-32 -2.435112177995505e-15
-48.89999771118164 7.800000190734863 58.999996185302734 10.03843000929699 -5.06791989723738 91.48096275626168 7.049681340378344e-07 2.252214937736935e-07 -5.575258857815327 111.06490152422887 23.868207275873974 -81.90381257036913 -5.399384789255116e-06 -1.3262359438507014e-06 91.96887633568704 0.0 0.0 -6.3611093629270335e-15 -95.61482606082389 16.628071159464213 79.86277765294452 4.144320196870368e-07 7.295394875113934e-07 -93.30984378627011 -8.827812596100317e-32 -1.5902773407317584e-15 -6.3611093629270335e-15 12.753378233289682 -11.87743514590366 -51.18393366401641 -36.321803424266854 17.427584757891566 -14.669197560463987 -3.1805546814635164e-15 -3.862168010793889e-32 1.3914926731402884e-15 4.8872335418143695 -17.63583673298885 13.019651077457349 9.238150935237863 40.53665809045472 44.91888512799615 -3.975693351829397e-16 1.4827966470012253e-32 -4.273870353216602e-15
-51.70000076293945 8.100000381469727 59.10000228881836 8.253852452029449 -5.06200305873853 91.78644740998446 -5.585424002758733e-07 -7.355329081003288e-07 -5.231499383696517 110.9070739299921 23.491587836900724 -82.22201686303981 5.721592554367944e-06 -1.9459926517154678e-06 92.89468764559601 6.3611093629270335e-15 0.0 0.0 -95.38322502875658 16.21377915015537 79.70006228591348 2.778287737962851e-06 1.4146399900635698e-06 -93.64302329371782 -6.3611093629270335e-15 0.0 0.0 11.811077059301311 -10.475894173862677 -51.89682624460004 -35.23604100297923 17.64944983807843 -14.879289623959 0.0 0.0 4.174478019420866e-15 4.673201181364135 -16.694118915878004 13.792032403621457 10.9887688321223 40.97869676018508 42.994567200236325 -7.951386703658792e-16 -1.5902773407317584e-15 5.963540027744094e-16
